<svg width="66" height="57" viewBox="0 0 66 57" fill="none" xmlns="http://www.w3.org/2000/svg">
<path d="M16.5 38.9394C6.64024 35.3324 0 28.5891 0 20.8661C0 9.3452 14.7796 0 33 0C51.2204 0 66 9.3452 66 20.8661C66 28.5891 59.3598 35.3324 49.5 38.9394V46.3125C49.5 47.4385 48.0613 48.3482 46.2805 48.3482H19.7195C17.9387 48.3482 16.5 47.4385 16.5 46.3125V38.9394ZM20.9268 52.4196H45.0732C45.5159 52.4196 45.878 52.6487 45.878 52.9286V54.9643C45.878 56.0903 44.4393 57 42.6585 57H23.3415C21.5607 57 20.122 56.0903 20.122 54.9643V52.9286C20.122 52.6487 20.4841 52.4196 20.9268 52.4196Z" fill="black"/>
</svg>
