<svg width="66" height="57" viewBox="0 0 66 57" fill="none" xmlns="http://www.w3.org/2000/svg">
<path d="M50.908 23.9328C50.908 25.6879 49.1893 27.1106 47.069 27.1106C44.9515 27.1106 43.2328 25.6856 43.2328 23.9328C43.2328 22.1777 44.9515 20.7574 47.069 20.7574C49.1865 20.7574 50.908 22.1777 50.908 23.9328Z" fill="black"/>
<path fill-rule="evenodd" clip-rule="evenodd" d="M49.599 13.1386C46.684 12.8156 42.9605 12.8156 38.2608 12.8156H27.7392C23.0367 12.8156 19.3133 12.8156 16.401 13.1386C13.4035 13.4734 10.9725 14.1764 9.0585 15.7606C7.1445 17.3471 6.29475 19.3563 5.8905 21.8406C5.5 24.2488 5.5 27.3316 5.5 31.2242V31.4617C5.5 35.3543 5.5 38.4371 5.8905 40.8501C6.29475 43.3319 7.1445 45.3412 9.0585 46.9253C10.9725 48.5118 13.4035 49.2148 16.401 49.5473C19.316 49.8751 23.0395 49.8751 27.7392 49.8751H38.2608C42.9633 49.8751 46.6867 49.8751 49.599 49.5497C52.5965 49.2172 55.0275 48.5142 56.9415 46.9277C58.8555 45.3436 59.7052 43.3343 60.1095 40.8524C60.5 38.4394 60.5 35.3567 60.5 31.4641V31.2266C60.5 27.3316 60.5 24.2512 60.1095 21.8382C59.7052 19.3563 58.8555 17.3471 56.9415 15.7606C55.0275 14.1764 52.5965 13.4734 49.599 13.1386ZM16.9125 16.2878C14.3385 16.5728 12.8563 17.1119 11.77 18.0073C10.6893 18.9051 10.0403 20.1306 9.69375 22.2609C9.41875 23.9709 9.3555 26.1084 9.34175 28.9014L10.6343 27.9633C13.728 25.7237 18.3865 25.8519 21.2905 28.2554L32.263 37.3398C32.8068 37.7827 33.5086 38.053 34.2535 38.1065C34.9984 38.16 35.7422 37.9935 36.3632 37.6343L37.1278 37.1902C38.9211 36.1544 41.0567 35.652 43.2105 35.7592C45.3643 35.8663 47.419 36.5772 49.0627 37.7839L55.682 42.7192C55.9515 42.0922 56.1578 41.3417 56.3063 40.4273C56.6583 38.2518 56.6637 35.3828 56.6637 31.3453C56.6637 27.3078 56.6583 24.4388 56.3063 22.2609C55.9598 20.1306 55.3107 18.9051 54.2272 18.0097C53.1465 17.1119 51.6615 16.5752 49.0875 16.2878C46.4585 15.9957 42.9935 15.9909 38.115 15.9909H27.885C23.0065 15.9909 19.5415 15.9957 16.9125 16.2878Z" fill="black"/>
<path d="M46.9865 6.19875C44.6215 5.9375 41.613 5.9375 37.8592 5.9375H29.3617C25.6107 5.9375 22.5995 5.9375 20.2345 6.19875C17.787 6.47187 15.7465 7.049 14.1267 8.38375C13.2328 9.12479 12.5511 10.0355 12.1357 11.0438C13.5217 10.4975 15.0892 10.1745 16.8492 9.975C19.8302 9.6425 23.6417 9.6425 28.4542 9.6425H39.2177C44.0302 9.6425 47.839 9.6425 50.8227 9.975C52.3572 10.1484 53.7487 10.4167 55 10.8442C54.5812 9.91467 53.9316 9.07562 53.097 8.38612C51.4772 7.049 49.4367 6.47188 46.9865 6.20113" fill="black"/>
</svg>
