<svg width="66" height="57" viewBox="0 0 66 57" fill="none" xmlns="http://www.w3.org/2000/svg">
<path d="M57.75 39.9713V26.5121C57.75 24.0326 57.75 22.7929 56.9717 21.8595C56.342 21.1066 55.3327 20.7053 53.5342 20.1661C53.1657 23.9804 51.7027 27.8778 49.4065 31.2859C46.7307 35.2569 42.757 38.8075 37.6667 40.7241C36.1943 41.2772 34.6057 41.5626 33 41.5626C31.3943 41.5626 29.8057 41.2772 28.3333 40.7241C23.243 38.8075 19.2692 35.2569 16.5935 31.2859C14.8502 28.6952 13.6109 25.875 12.925 22.9378C11.8717 22.8024 11.066 22.8713 10.3675 23.2061C10.0902 23.3407 9.83178 23.5025 9.5975 23.6883C8.25 24.7475 8.25 26.7164 8.25 30.6565V42.3653C8.25 44.8424 8.25 46.0821 9.02825 47.0155C9.8065 47.9489 11.1678 48.3408 13.8903 49.1245L14.9462 49.4285C19.283 50.6754 21.45 51.3 23.6693 51.3048C24.3375 51.3048 25.003 51.2644 25.6658 51.1813C27.8603 50.9081 29.9227 50.0175 34.0477 48.2363C37.2075 46.8706 38.7888 46.189 40.4663 45.8731C41.0548 45.7615 41.6515 45.6831 42.2537 45.6404C43.967 45.5169 45.6912 45.7663 49.148 46.2626C52.6487 46.7661 54.4005 47.0179 55.6792 46.3838C56.1137 46.17 56.4987 45.8874 56.815 45.5525C57.75 44.5669 57.75 43.035 57.75 39.9713Z" fill="black"/>
<path fill-rule="evenodd" clip-rule="evenodd" d="M33 4.75C23.8865 4.75 16.5 10.811 16.5 18.2875C16.5 25.707 21.7662 34.3639 29.9832 37.4585C30.9353 37.8154 31.9621 37.9996 33 37.9996C34.0379 37.9996 35.0647 37.8154 36.0168 37.4585C44.2338 34.3663 49.5 25.707 49.5 18.2875C49.5 10.811 42.1135 4.75 33 4.75ZM33 23.75C34.4587 23.75 35.8576 23.2496 36.8891 22.3588C37.9205 21.468 38.5 20.2598 38.5 19C38.5 17.7402 37.9205 16.532 36.8891 15.6412C35.8576 14.7504 34.4587 14.25 33 14.25C31.5413 14.25 30.1424 14.7504 29.1109 15.6412C28.0795 16.532 27.5 17.7402 27.5 19C27.5 20.2598 28.0795 21.468 29.1109 22.3588C30.1424 23.2496 31.5413 23.75 33 23.75Z" fill="black"/>
</svg>
