<svg width="87" height="75" viewBox="0 0 87 75" fill="none" xmlns="http://www.w3.org/2000/svg">
<path d="M65.9297 24.0234H55.7344V20.5078H30.2461V24.0234H20.0508C18.6087 24.0234 17.2256 24.5173 16.2059 25.3964C15.1862 26.2755 14.6133 27.4677 14.6133 28.7109V53.0273C14.6133 54.2705 15.1862 55.4628 16.2059 56.3419C17.2256 57.221 18.6087 57.7148 20.0508 57.7148H65.9297C67.3718 57.7148 68.7549 57.221 69.7746 56.3419C70.7943 55.4628 71.3672 54.2705 71.3672 53.0273V28.7109C71.3672 27.4677 70.7943 26.2755 69.7746 25.3964C68.7549 24.5173 67.3718 24.0234 65.9297 24.0234ZM42.9889 55.0781C33.9028 55.0781 26.5132 48.7031 26.5132 40.8703C26.5132 33.0375 33.9028 26.6625 42.9889 26.6625C52.0749 26.6625 59.4699 33.0375 59.4699 40.8703C59.4699 48.7031 52.0749 55.0734 42.9889 55.0734V55.0781ZM42.9889 31.3477C41.5381 31.3478 40.1015 31.5943 38.7612 32.0731C37.4209 32.5518 36.2032 33.2535 35.1774 34.1379C34.1517 35.0224 33.3381 36.0724 32.783 37.228C32.228 38.3835 31.9424 39.622 31.9426 40.8727C31.9428 42.1233 32.2287 43.3618 32.7841 44.5172C33.3394 45.6726 34.1533 46.7224 35.1793 47.6067C36.2053 48.4909 37.4233 49.1923 38.7637 49.6708C40.1042 50.1493 41.5408 50.3955 42.9916 50.3953C45.922 50.395 48.7322 49.3912 50.804 47.6047C52.8759 45.8182 54.0396 43.3953 54.0392 40.8691C54.0389 38.343 52.8744 35.9204 50.8021 34.1343C48.7298 32.3482 45.9193 31.345 42.9889 31.3453V31.3477Z" fill="black"/>
</svg>
